<?xml version="1.0" encoding="utf-8"?>
<!-- Generator: Adobe Illustrator 27.8.1, SVG Export Plug-In . SVG Version: 6.00 Build 0)  -->
<svg version="1.1" id="Layer_1" xmlns="http://www.w3.org/2000/svg" xmlns:xlink="http://www.w3.org/1999/xlink" x="0px" y="0px"
	 viewBox="0 0 295 160" style="enable-background:new 0 0 295 160;" xml:space="preserve">
<style type="text/css">
	.st0{fill:#FFFFFF;}
</style>
<path class="st0" d="M172.1,62.3c-1.7,0-3.4,1.1-5.2,3.3c-0.1-2.1-1.3-3.5-2.9-3.5c-2.3,0-3.9,1.8-6,4.6l1.4-4.5
	c0.1-0.2,0-0.5-0.1-0.7c-0.1-0.2-0.3-0.2-0.5-0.2c-0.1,0-0.3,0-0.4,0.1l-0.6,0.4c-0.3,0.2-0.6,0.4-0.8,0.6c-2.2,1.6-5.2,3.9-7.8,3.9
	c-1.9,0-2.9-1.1-2.9-3.1c0.1-0.4-0.2-0.7-0.6-0.8c0,0,0,0-0.1,0c-0.3,0-0.6,0.2-0.7,0.6c-0.2,1.2,0.2,2.4,1,3.3
	c0.9,0.9,2.1,1.4,3.3,1.3c3.1,0,5.8-2.1,8-3.7l0.3-0.2l-2.1,6.6c-0.1,0.2-2.5,4-2.6,4.2c-2.7,3.7-3.9,6-4,7.5c0,1.2,0.6,1.9,1.5,1.9
	c1.9,0,2.6-1.5,4.1-6.3l2.1-6.6c1.9-2.8,5-7.5,7.4-7.5c1.5,0,1.7,1.8,1.7,2.6c0,0.8-0.2,1.7-0.4,2.5c-1.2,4.3-2.9,9.5-4.5,14.2
	c-0.1,0.2,0,0.5,0.1,0.7c0.2,0.3,0.6,0.3,0.9,0.1c0.1-0.1,0.2-0.2,0.2-0.3c2.6-7.6,2.9-8.7,4.7-14.9c0.7-1.1,3.1-4.6,5.4-4.6
	c1.7,0,2.4,0.8,2.4,2.6s-0.7,3.7-1.6,6.4l-0.4,1c-0.1,0.3-0.2,0.7-0.4,1.1c-1.3,3.7-3.5,9.8-3.5,11.7c-0.1,1.7,1.1,3.1,2.8,3.2
	c0.1,0,0.2,0,0.4,0c0.4,0,0.6-0.3,0.6-0.7l0,0c0-0.3-0.3-0.6-0.6-0.6c0,0,0,0,0,0c-1,0-1.8-0.7-1.9-1.7c0-0.1,0-0.1,0-0.2
	c0-1.8,2.7-9.4,3.7-12.3l0.3-0.9c1-2.9,1.8-5,1.7-6.8C175.8,63.7,174.6,62.3,172.1,62.3L172.1,62.3z M150.4,82.5
	c-0.2,0-0.2-0.3-0.2-0.4c0-1.3,0.7-2.3,2.1-4.3c0.4-0.7,0.9-1.4,1.5-2.3l-0.5,1.7l0,0C152.1,80.9,151.5,82.5,150.4,82.5z"/>
<path class="st0" d="M218.7,76.8L218.7,76.8c-0.1,0-0.2-0.1-0.3-0.1c-0.3,0-0.5,0.2-0.6,0.4c-1.4,3.2-2.7,5.3-4.6,5.3
	c-0.5,0-0.8-0.4-0.8-1.1c0.1-1.2,0.4-2.3,0.8-3.4l0.1-0.2c0,0,0-0.1,0-0.1l0,0c0.5-1.5,1-3.1,1.5-4.5l0.9-2.5l1.5-4.4
	c0.2-0.3,0-0.7-0.3-0.9s-0.7,0-0.9,0.3c0,0,0,0.1,0,0.1l-1.4,4.3c-0.3,0.8-0.6,1.7-0.8,2.5c-0.5,1.5-1.1,3.1-1.5,4.6l-0.1,0.2
	c-0.9,2-2.2,5.1-3.9,5.1c-0.5,0-0.8-0.2-0.8-1.1c0-1.1,0.8-3.3,1.6-5.8l0.3-0.9l1.3-3.9c0.1-0.2,0.1-0.4-0.1-0.6
	c-0.1-0.2-0.3-0.3-0.5-0.3c-0.3,0-0.5,0.2-0.6,0.4l-0.1,0.3c-0.1,0.3-0.2,0.6-0.3,0.9c-0.5-0.9-1.5-1.5-2.5-1.4
	c-2.5,0-4.7,3.7-5.7,7.1l0,0c-1.4,3.2-2.7,5.3-4.6,5.3c-0.5,0-0.8-0.4-0.8-1.1s0.4-2.2,1.5-5.5l0.9-2.5c0.3-1,0.6-1.6,0.7-1.9h2.2
	c0.4,0,0.7-0.3,0.7-0.7c0,0,0,0,0,0c0-0.3-0.3-0.6-0.7-0.6h-1.8c0.1-0.4,0.4-1.2,0.7-2c0.4-1.2,0.5-1.6,0.6-1.7l0,0
	c0.1-0.2,0.1-0.4-0.1-0.6c-0.1-0.2-0.3-0.3-0.5-0.3c-0.3,0-0.6,0.2-0.6,0.5c-0.1,0.2-1.3,3.8-1.4,4.2h-2.1c-0.4,0-0.7,0.3-0.7,0.7
	c0,0,0,0,0,0c0,0.4,0.3,0.7,0.6,0.7c0,0,0,0,0,0h1.6l-1.4,4c-0.2,0.6-0.4,1.1-0.6,1.7l0,0c0,0-0.1,0.1-0.1,0.1
	c-1.8,4-2.8,5.3-3.9,5.3c-0.5,0-0.8-0.3-0.8-1.1c0.1-1.4,0.5-2.7,1-3.9c0.6-1.5,1-3,1.1-4.6c0-1.8-0.9-2.8-2.7-2.8
	c-0.9,0.1-1.8,0.5-2.4,1.2l0.1-0.2c0.1-0.2,0.1-0.4-0.1-0.6c-0.1-0.2-0.3-0.3-0.5-0.3c-0.3,0-0.6,0.2-0.6,0.5
	c-0.6,1.5-1.3,3.7-2,5.9l-0.2,0.7l0,0c0,0,0,0,0,0.1c-1.5,3.6-3.2,5.3-5.4,5.3h-0.1c-1.3,0.1-2.4-0.9-2.5-2.1c0-0.2,0-0.3,0-0.5
	c0-0.6,0.1-1.2,0.3-1.8c1.7-0.4,3.3-1.1,4.8-2c1.7-1.1,2.5-2.4,2.5-3.8s-1-2.2-2.5-2.2s-3.1,1.2-4.4,3.5c-1.1,1.9-1.8,4-2,6.3
	c-0.1,1.1,0.3,2.2,1,3c0.7,0.7,1.7,1.1,2.7,1c1.4,0,2.8-0.6,3.8-1.5l-0.2,0.6c-0.1,0.3,0,0.7,0.3,0.9s0.7,0,0.9-0.3
	c0,0,0-0.1,0.1-0.1l1.9-5.6v-0.1c0,0,0-0.1,0-0.1c0.5-1.4,1.2-2.8,2.1-4.1c1-1.4,1.9-2.2,2.6-2.2c0.7-0.1,1.3,0.4,1.4,1.1
	c0,0.1,0,0.2,0,0.3c-0.1,1.4-0.5,2.8-1.1,4.1c-0.6,1.4-1,2.9-1.1,4.5c0,1.5,0.8,2.5,2.1,2.5c1.1,0,2.1-0.6,3.1-2c0,1.1,1,2,2.1,2
	c1.5,0,2.8-0.9,4.1-2.7c0.1,1.7,1,2.7,2.3,2.7c1.2,0,2.3-0.8,3.4-2.3c0.1,1.4,0.8,2.3,2.1,2.3c1.1,0,2.1-0.6,3-1.9
	c0.1,1.1,1,1.9,2.1,1.9c2.6,0,4.1-2.3,5.8-6.1c0-0.1,0.1-0.2,0.1-0.3C219,77.1,218.9,76.9,218.7,76.8z M208.2,73.4l-0.7,1.8
	c-1.1,2.9-2.7,7.2-4.9,7.2c-0.7,0-1-0.6-1-2c0.1-2.9,2.4-9,4.9-9C207.5,71.4,208.1,72.1,208.2,73.4L208.2,73.4z M176.7,76.4
	c0.7-1.6,2.3-5,4.3-5c0.8,0,1.1,0.2,1.1,0.8C182.1,74.2,179.2,75.5,176.7,76.4L176.7,76.4z"/>
<path class="st0" d="M280.9,76.8L280.9,76.8c-0.1,0-0.2-0.1-0.3-0.1c-0.3,0-0.5,0.2-0.6,0.4c-1.6,3.8-2.7,5.3-4,5.3
	c-0.5,0-0.8-0.3-0.8-1.1c0.2-1.4,0.5-2.8,1.1-4.1c0.6-1.4,0.9-2.9,1.1-4.4c0-1.8-0.9-2.8-2.7-2.8c-0.9,0.1-1.8,0.5-2.4,1.1
	c1-2.8,1.5-4.5,1.7-5c0.1-0.2,0-0.4-0.1-0.6c-0.2-0.3-0.6-0.4-1-0.2c-0.1,0.1-0.2,0.2-0.2,0.3c-0.7,2.1-2.2,6.6-3.9,11.4l0,0
	c0,0,0,0,0,0.1c-1.4,3.2-2.7,5.3-4.6,5.3c-0.5,0-0.8-0.4-0.8-1.1s0.4-2.2,1.5-5.5c0.4-1.1,0.6-1.9,0.9-2.6c0.3-1,0.5-1.6,0.7-1.9
	h2.2c0.4,0,0.7-0.3,0.7-0.7c0,0,0,0,0,0c0-0.4-0.3-0.7-0.7-0.7l0,0h-1.8c0.1-0.4,0.4-1.2,0.7-2c0.4-1.2,0.5-1.5,0.6-1.7l0,0
	c0.1-0.2,0-0.4-0.1-0.6c-0.1-0.2-0.3-0.3-0.5-0.3c-0.3,0-0.5,0.2-0.6,0.5c0,0.2-1.3,3.8-1.4,4.2h-2.1c-0.4,0-0.7,0.3-0.7,0.7l0,0
	c0,0.4,0.3,0.7,0.6,0.7c0,0,0,0,0,0h1.6l-1.4,4c-0.2,0.6-0.4,1.1-0.6,1.7l-0.1,0.1c-1.4,3.2-2.7,5.3-4.6,5.3c-0.5,0-0.8-0.4-0.8-1.1
	c0.1-1.2,0.4-2.3,0.8-3.4l0.1-0.2c0-0.1,0-0.1,0-0.2l0,0c0.5-1.5,1-3.1,1.5-4.6c0.3-0.8,0.6-1.6,0.9-2.5l1.4-4.4
	c0.1-0.4-0.1-0.8-0.4-0.9c-0.4-0.1-0.7,0.1-0.9,0.4l-1.5,4.4c-0.3,0.8-0.5,1.6-0.8,2.4c-0.5,1.5-1.1,3.2-1.6,4.7l0,0.2
	c-0.9,2-2.2,5.1-3.9,5.1c-0.5,0-0.8-0.2-0.8-1.1c0-1.1,0.8-3.3,1.6-5.8l0.3-0.9l1.4-3.8c0.1-0.2,0.1-0.4-0.1-0.6
	c-0.1-0.2-0.3-0.3-0.5-0.3c-0.3,0-0.5,0.2-0.6,0.4l-0.1,0.3c-0.1,0.3-0.2,0.6-0.3,0.9c-0.5-0.9-1.5-1.5-2.5-1.5
	c-2.5,0-4.7,3.7-5.7,7.2c-1.5,3.6-3.2,5.2-5.4,5.2h-0.1c-1.3,0.1-2.4-0.9-2.4-2.2c0-0.2,0-0.3,0-0.5c0-0.6,0.1-1.2,0.3-1.8
	c1.7-0.4,3.3-1.1,4.8-2c1.7-1.1,2.5-2.4,2.5-3.8s-0.9-2.2-2.4-2.2c-1.2,0-2.5,0.8-3.6,2.3c-1.1,1.5-1.9,3.1-2.4,4.9
	c-1.6,3.8-2.7,5.2-3.9,5.2c-0.5,0-0.8-0.3-0.8-1.1c0.2-1.4,0.5-2.8,1.1-4.1c0.6-1.4,0.9-2.9,1.1-4.4c0-1.8-0.9-2.8-2.7-2.8
	c-0.9,0.1-1.8,0.5-2.4,1.1c1-2.8,1.5-4.5,1.7-5c0.1-0.2,0.1-0.4-0.1-0.6s-0.3-0.3-0.6-0.3c-0.3,0-0.5,0.2-0.6,0.4
	c-0.8,2.4-2.7,7.8-4.9,14.1l-1.1,3.2c-0.1,0.3,0,0.7,0.3,0.9s0.7,0,0.9-0.3c0,0,0-0.1,0.1-0.1c0.3-0.9,0.6-1.7,0.9-2.5
	c1.7-4.8,2.1-6,3.6-8c0.8-1,1.5-1.5,2.1-1.5c0.7-0.1,1.3,0.4,1.4,1.1c0,0.1,0,0.2,0,0.3c-0.1,1.3-0.5,2.7-1,3.9
	c-0.6,1.5-1,3.1-1.2,4.7c0,1.5,0.8,2.5,2.1,2.5s2.4-0.8,3.6-2.8c0.3,1.7,1.9,3,3.6,2.8c2,0,3.6-0.9,5-2.9c0.1,1.8,1,2.9,2.4,2.9
	c1.2,0,2.3-0.8,3.4-2.3c0.1,1.4,0.8,2.3,2.1,2.3c1.1,0,2.1-0.6,3-1.9c0.1,1.1,1,1.9,2.1,1.9c1.4,0,2.6-0.7,3.7-2.2
	c0,1.2,0.9,2.2,2.1,2.2c0,0,0,0,0,0c1,0,1.9-0.4,2.7-1.1l0,0.2c-0.1,0.4,0.1,0.8,0.4,0.9c0,0,0,0,0,0c0.4,0.1,0.7-0.1,0.8-0.4
	c0.3-0.9,0.6-1.7,0.9-2.5c1.7-4.8,2.1-6,3.6-8c0.8-1,1.5-1.5,2.1-1.5c0.7-0.1,1.3,0.4,1.4,1.1c0,0.1,0,0.2,0,0.3
	c-0.1,1.3-0.5,2.7-1,3.9c-0.6,1.5-1,3.1-1.2,4.7c0,1.5,0.8,2.5,2.1,2.5c2.1,0,3.5-2.1,5.2-6.1c0-0.1,0-0.2,0-0.2
	C281.4,77.1,281.2,76.8,280.9,76.8L280.9,76.8z M253.5,73.4l-0.7,1.8c-1.1,2.9-2.7,7.2-4.9,7.2c-0.7,0-1-0.6-1-2
	c0.1-0.9,0.2-1.9,0.5-2.8l0,0c0.9-3,2.6-6.2,4.4-6.2C252.8,71.4,253.5,72.1,253.5,73.4L253.5,73.4L253.5,73.4z M239,76.4
	c0.7-1.6,2.3-5,4.3-5c0.8,0,1.1,0.2,1.1,0.8C244.4,74.2,241.5,75.5,239,76.4L239,76.4L239,76.4z"/>
<path class="st0" d="M142.6,100.2L142.6,100.2l1.1,2.9h0.9l-3.4-9.1h-0.8l-3.4,9.1h0.9l1.1-2.9H142.6z M140.3,96.5
	c0.1-0.4,0.3-0.9,0.4-1.3l0.1-0.3l0.1,0.3c0.1,0.5,0.3,1,0.4,1.3l1.1,2.9h-3.1L140.3,96.5L140.3,96.5z"/>
<path class="st0" d="M146.9,95.5l4.8,7.7h1.1v-9.1H152v6.5c0,0.6,0.1,1,0.1,1.1v0.1h-0.2l-4.8-7.7h-1v9.1h0.8V98
	c0-0.8,0-1.6-0.1-2.5v-0.1L146.9,95.5L146.9,95.5z"/>
<path class="st0" d="M161.2,95.3c-0.9-0.8-2-1.2-3.2-1.2h-2.6v9.1h2.4c1.2,0.1,2.5-0.3,3.4-1.2c0.8-0.9,1.2-2.2,1.1-3.4
	C162.4,97.3,162,96.2,161.2,95.3L161.2,95.3z M160.4,101.4c-0.8,0.7-1.8,1-2.8,1h-1.3v-7.5h1.6c1-0.1,1.9,0.3,2.6,0.9
	c0.6,0.8,1,1.8,0.9,2.8C161.5,99.6,161.1,100.6,160.4,101.4L160.4,101.4z"/>
<polygon class="st0" points="174.3,103.2 174.3,94.1 173.4,94.1 173.4,98 168.6,98 168.6,94.1 167.7,94.1 167.7,103.2 168.6,103.2 
	168.6,98.8 173.4,98.8 173.4,103.2 "/>
<path class="st0" d="M183.4,94.1h-0.9v5.9c0,0.7-0.2,1.3-0.6,1.8c-0.5,0.4-1.1,0.7-1.8,0.6c-1.2,0.2-2.3-0.7-2.5-1.9
	c0-0.2,0-0.3,0-0.5v-5.9h-0.9v5.8c-0.1,0.9,0.2,1.8,0.9,2.5c0.6,0.6,1.5,0.9,2.4,0.9c0.9,0.1,1.8-0.3,2.5-0.9
	c0.6-0.7,0.9-1.5,0.9-2.4L183.4,94.1L183.4,94.1z"/>
<path class="st0" d="M193.8,95L193.8,95c-0.1,0.8-0.1,1.6-0.1,2.3v5.9h0.9v-9.1h-1.4l-2.8,7.6h-0.1v-0.1l-2.8-7.6H186v9.1h0.8v-5.8
	c0-0.9,0-1.7-0.1-2.3V95h0.2V95l3,8.1h0.8l3.1-8.2L193.8,95L193.8,95z"/>
<path class="st0" d="M201.7,100.2l1.1,2.9h0.9l-3.4-9.1h-0.8l-3.4,9.1h0.9l1.1-2.9H201.7L201.7,100.2z M198.4,99.3l1.1-2.8
	c0.1-0.4,0.3-0.9,0.4-1.3l0.1-0.3l0.1,0.3c0.1,0.5,0.3,1,0.4,1.3l1.1,2.9L198.4,99.3L198.4,99.3L198.4,99.3z"/>
<path class="st0" d="M206,95.5l4.8,7.7h1.1v-9.1h-0.8v6.5c0,0.6,0.1,1,0.1,1.1v0.1h-0.2l-4.8-7.7h-1v9.1h0.8V98c0-0.8,0-1.6-0.1-2.5
	v-0.1L206,95.5L206,95.5L206,95.5z"/>
<path class="st0" d="M220.6,99.4l2.1,3.8h1.1l-2.4-4.1h0.1c1.1-0.3,1.8-1.3,1.7-2.4c0.1-0.7-0.2-1.4-0.8-1.9
	c-0.7-0.5-1.5-0.7-2.4-0.6h-2.4v9h0.9v-3.8L220.6,99.4L220.6,99.4L220.6,99.4z M218.6,98.6v-3.7h1.4c0.6-0.1,1.2,0.1,1.7,0.4
	c0.4,0.3,0.6,0.9,0.6,1.4c0,0.5-0.2,1-0.5,1.4c-0.5,0.3-1.1,0.5-1.7,0.5L218.6,98.6L218.6,98.6z"/>
<rect x="225.4" y="94.1" class="st0" width="0.9" height="9.1"/>
<path class="st0" d="M235.6,98.5h-2.9v0.8h2v3h-0.1c-0.6,0.2-1.2,0.2-1.8,0.2c-1,0.1-1.9-0.3-2.6-1c-0.6-0.8-1-1.8-0.9-2.9
	c-0.1-1,0.3-2,0.9-2.8c0.7-0.7,1.6-1.1,2.6-1c0.8,0,1.6,0.2,2.3,0.5l0.4-0.8c-0.8-0.3-1.7-0.5-2.6-0.5c-0.8,0-1.7,0.2-2.4,0.6
	c-0.7,0.4-1.2,0.9-1.6,1.6c-0.4,0.8-0.6,1.6-0.6,2.5c-0.1,1.2,0.3,2.5,1.1,3.4c0.8,0.8,1.9,1.3,3.1,1.2c0.6,0,1.1,0,1.7-0.1
	c0.5-0.1,0.9-0.2,1.4-0.3L235.6,98.5L235.6,98.5z"/>
<polygon class="st0" points="244.5,103.2 244.5,94.1 243.6,94.1 243.6,98 238.8,98 238.8,94.1 237.9,94.1 237.9,103.2 238.8,103.2 
	238.8,98.8 243.6,98.8 243.6,103.2 "/>
<polygon class="st0" points="252.5,94.1 246,94.1 246,94.9 248.8,94.9 248.8,103.2 249.7,103.2 249.7,94.9 252.5,94.9 "/>
<path class="st0" d="M258.4,99.3c-0.5-0.5-1.2-0.9-1.9-1.1c-0.4-0.2-0.9-0.3-1.3-0.6c-0.2-0.2-0.4-0.3-0.6-0.6
	c-0.1-0.2-0.2-0.5-0.2-0.8c0-0.4,0.2-0.8,0.5-1.1c0.4-0.3,0.9-0.4,1.3-0.4c0.7,0,1.4,0.2,2.1,0.4l0.3-0.8c-0.7-0.3-1.5-0.5-2.4-0.5
	c-0.7,0-1.4,0.2-2,0.6c-0.5,0.4-0.8,1-0.8,1.6c0,0.6,0.2,1.1,0.5,1.6c0.5,0.5,1.1,0.9,1.7,1.1c0.5,0.2,0.9,0.4,1.3,0.6
	c0.3,0.1,0.5,0.3,0.6,0.6c0.1,0.2,0.2,0.5,0.2,0.8c0,0.5-0.2,0.9-0.5,1.2c-0.5,0.3-1,0.5-1.6,0.4c-0.4,0-0.9-0.1-1.3-0.1
	c-0.4-0.1-0.8-0.2-1.1-0.3v0.9c0.8,0.3,1.6,0.4,2.4,0.4c0.8,0,1.6-0.2,2.3-0.7c0.5-0.4,0.9-1.1,0.8-1.8
	C258.9,100.3,258.7,99.7,258.4,99.3L258.4,99.3z"/>
<rect x="264.1" y="94.1" class="st0" width="0.9" height="9.1"/>
<path class="st0" d="M268.4,95.5l4.8,7.7h1.1v-9.1h-0.8v6.5c0,0.6,0,1,0,1.1v0.1h-0.2l-4.8-7.7h-1v9.1h0.8V98c0-0.8,0-1.6-0.1-2.5
	v-0.1L268.4,95.5L268.4,95.5L268.4,95.5z"/>
<polygon class="st0" points="281.5,98.4 277.8,98.4 277.8,94.9 281.7,94.9 281.7,94.1 276.9,94.1 276.9,103.2 277.8,103.2 
	277.8,99.2 281.5,99.2 "/>
<path class="st0" d="M289.9,95.2c-0.7-0.8-1.8-1.3-2.9-1.2c-1.1-0.1-2.2,0.4-3,1.2c-0.8,1-1.1,2.2-1,3.4c-0.1,1.2,0.3,2.5,1,3.5
	c0.8,0.8,1.9,1.3,3,1.2c1.1,0.1,2.2-0.4,2.9-1.2c0.8-1,1.1-2.2,1.1-3.4C291,97.4,290.6,96.2,289.9,95.2L289.9,95.2z M289.2,101.5
	c-1.2,1.3-3.2,1.3-4.5,0.2c0-0.1-0.1-0.1-0.1-0.2c-0.6-0.8-0.8-1.9-0.8-2.9c-0.1-1,0.2-2,0.8-2.9c0.6-0.7,1.4-1.1,2.3-1
	c0.9-0.1,1.7,0.3,2.3,1c0.6,0.8,0.8,1.8,0.8,2.9C290,99.6,289.8,100.6,289.2,101.5L289.2,101.5z"/>
<g>
	<path class="st0" d="M98.6,158.5c-0.8-28.7-4-34.4-5.3-35.5l-0.1-0.1h-0.4l-0.1,0.1c-1,1.2-10.3,11.8-19.1,14.1
		c-3.9,1-8,1.4-12.1,1.4h-0.5c-6.1,0-11.5-0.9-14-2.3c-1.3-0.7-3.2-2.1-5.7-3.9c-4.3-3.1-10.1-7.3-14-8.5c-7-2.5-13.8-5.6-20.2-9.4
		c-1.9-1.3-4-2.4-6.1-3.3v-1.4c2.4,1,4.7,2.2,6.9,3.7c6.3,3.7,13,6.8,19.9,9.2c3.5,1.1,8.7,4.7,13.2,7.8l1.1,0.8
		c2.7,2.1,4.4,3.2,5.6,3.9c2.2,1.3,7.4,2.1,13.2,2.1c4.5,0,8.8-0.5,12.2-1.4c7.6-2,15.8-10.8,18.2-13.5l0.1-0.1l-1.7-9.4l-0.4,0.4
		c-2.2,2.1-6.8,4-11.5,5.8l-0.9,0.3c-0.9,0.3-1.9,0.5-3,0.5c-4-0.1-7.7-1.9-10.2-4.9c-2.2-2.6-5.3-4.4-8.6-5c-1-0.3-1.7-0.6-2.4-0.8
		c-3.3-1.7-5.1-2.9-4.7-10c0.2-3.4-0.3-4.2-0.5-4.3l-0.1-0.1l-0.1,0c-0.7,0.1-1.4,0.4-2,0.8L44.7,96c-2.3,0.9-7.9,7.2-9.6,9.3
		l-1-0.9c2-2.3,7.5-8.6,10.1-9.7l0.7-0.3l0.4-0.2c0.8-0.4,1.6-0.7,2.3-0.7c0.3,0,0.6,0.1,0.9,0.3c1,0.7,1.3,2.3,1.1,5.6
		c-0.4,6.6,1,7.2,3.8,8.6l0.1,0.1c0.8,0.3,1.5,0.6,2.3,0.8c3.5,0.8,6.7,2.8,8.9,5.6c2.2,2.8,5.4,4.3,8.9,4.3c0.9,0,1.8-0.1,2.8-0.3
		l1-0.4c7.8-2.9,11.8-5.2,11.8-6.7c0-2-3.1-12.3-5.3-19.9l-0.5-1.8c-0.4-1.5-0.8-2.9-1.2-4.1c-0.3-1.2-0.6-2.1-0.8-2.7
		c-0.2-0.6-0.6-1.6-1-2.9c-3.8-10.5-7.5-21.9-3.3-24.5c4.2-2.3,8.7-4.3,13.2-6.1l0.2-0.1c7-2.9,14.9-6.3,17.5-8.4l2.2-1.7
		c5.3-4.2,14-11.1,15.6-15h0.2V1.3h1.3v29.6c0,0.1,0.9,8.5-5.8,19.3c-6.4,10.5-29.2,57.7-30.7,60.7l0,0.1l2,10.6l0.2,0
		c0.2,0,0.4,0.1,0.5,0.2c2.4,1.2,5.5,8.5,6.3,36.8L98.6,158.5L98.6,158.5z M84.8,53.2c-2.3,0.9-4.7,2.1-6.8,3.3
		c-3.4,2,0.5,14,3.8,22.9l0.3,0.9c0.3,0.9,0.6,1.6,0.8,2.1c0.3,1.2,1,3.6,1.9,6.8c2.3,7.8,4.5,15.1,5.5,19.2l0.2,0.8l0.4-0.8
		c5.6-11.4,24.1-49.5,29.7-58.8c6.3-10.4,5.5-18.5,5.5-18.6v-4.6l-0.5,0.7c-3,3.9-9.2,8.9-14.7,13.2l-1.9,1.5
		c-2.8,2.2-10.4,5.4-17.8,8.6l-4,1.7l1.1,0.2c3.2,0.4,6.1,0.7,8.5,0.7c2.9,0,5.1-0.3,6.6-0.9c5.4-2.2,7.1-3.3,9.7-7.4l1.2,0.7
		c-2.7,4.4-4.7,5.7-10.2,8c-2.1,0.7-4.2,1.1-6.4,1.1c-0.2,0-0.5,0-0.7,0c-3.9-0.1-7.8-0.5-11.6-1.2L84.8,53.2L84.8,53.2L84.8,53.2z"
		/>
	<path class="st0" d="M18.2,76.7c-4.9,0-8.7-0.7-10.8-1.9l0.8-1.1c1.9,1.1,5.5,1.7,10,1.7c3.4,0,7.1-0.3,10.7-1
		c6.5-1.2,9.2-7.2,10.1-9.8l0.1-0.4h-1.1c-3.1,0-5.9-0.1-8.7-0.4c-4.1-0.4-8.2-0.6-12.5-0.8c-7.9-0.4-13-0.7-15.7-1.6v-1.4
		c2.5,1,9.8,1.3,15.8,1.6c4.3,0.2,8.4,0.4,12.5,0.8c3,0.2,6.1,0.3,9.1,0.3c4.2,0,8.4-0.2,12.5-0.7c1.5-0.2,2.9-0.3,4.4-0.3l-0.1,1.3
		c-1.4,0-2.8,0.1-4.2,0.3l-1.2,0.1c-2.5,0.2-5.6,0.5-9.2,0.5h-0.2l-0.1,0.2c-0.9,3-3.8,9.9-11.4,11.3C25.6,76.4,21.9,76.7,18.2,76.7
		L18.2,76.7z"/>
</g>
</svg>
